<svg xmlns="http://www.w3.org/2000/svg" version="1.1" xmlns:xlink="http://www.w3.org/1999/xlink" xmlns:svgjs="http://svgjs.dev/svgjs" viewBox="0 0 19.661344986649926 19.064259251664375"><g transform="matrix(1,0,0,1,1.6133366778952745,16.0019225737691)"><g><path d=" M 0.8475 0.013499999999999845 L 0.507 0.6644999999999999 L 0.507 1.059 L 0.3705 1.059 L 0.3705 0.6644999999999999 L 0.0285 0.013499999999999845 L 0.18 0.013499999999999845 L 0.438 0.5429999999999999 L 0.6960000000000001 0.013499999999999845 L 0.8475 0.013499999999999845 Z M 1.1557265625 1.02 Q 1.0619765625 0.9674999999999999 1.0087265625 0.8707499999999999 Q 0.9554765625 0.7739999999999999 0.9554765625 0.6464999999999999 Q 0.9554765625 0.5205 1.0102265625 0.42374999999999996 Q 1.0649765625 0.32699999999999996 1.1594765625 0.2752499999999999 Q 1.2539765625000001 0.22349999999999992 1.3709765625 0.22349999999999992 Q 1.4879765625 0.22349999999999992 1.5824765625000001 0.2752499999999999 Q 1.6769765625000002 0.32699999999999996 1.7317265625 0.42299999999999993 Q 1.7864765625 0.5189999999999999 1.7864765625 0.6464999999999999 Q 1.7864765625 0.7739999999999999 1.7302265625 0.8707499999999999 Q 1.6739765625 0.9674999999999999 1.5779765625 1.02 Q 1.4819765624999999 1.0725 1.3649765625 1.0725 Q 1.2494765625 1.0725 1.1557265625 1.02 Z M 1.5029765625 0.9179999999999999 Q 1.5674765625 0.8835 1.6072265625000002 0.8145 Q 1.6469765625 0.7454999999999999 1.6469765625 0.6464999999999999 Q 1.6469765625 0.5474999999999999 1.6079765625 0.4784999999999999 Q 1.5689765625 0.4095 1.5059765625 0.3757499999999999 Q 1.4429765625000002 0.34199999999999997 1.3694765625 0.34199999999999997 Q 1.2944765625 0.34199999999999997 1.2322265625 0.3757499999999999 Q 1.1699765625 0.4095 1.1324765625 0.4784999999999999 Q 1.0949765625 0.5474999999999999 1.0949765625 0.6464999999999999 Q 1.0949765625 0.7469999999999999 1.1317265625 0.816 Q 1.1684765625 0.8849999999999999 1.2299765625 0.91875 Q 1.2914765625 0.9524999999999999 1.3649765625 0.9524999999999999 Q 1.4384765625 0.9524999999999999 1.5029765625 0.9179999999999999 Z M 2.7104069824218753 0.23699999999999988 L 2.7104069824218753 1.059 L 2.573906982421875 1.059 L 2.573906982421875 0.9375 Q 2.534906982421875 1.0005 2.465156982421875 1.03575 Q 2.395406982421875 1.071 2.3114069824218753 1.071 Q 2.215406982421875 1.071 2.138906982421875 1.03125 Q 2.062406982421875 0.9914999999999999 2.018156982421875 0.9119999999999999 Q 1.9739069824218751 0.8324999999999999 1.9739069824218751 0.7184999999999999 L 1.9739069824218751 0.23699999999999988 L 2.108906982421875 0.23699999999999988 L 2.108906982421875 0.7004999999999999 Q 2.108906982421875 0.822 2.1704069824218752 0.8872499999999999 Q 2.231906982421875 0.9524999999999999 2.338406982421875 0.9524999999999999 Q 2.447906982421875 0.9524999999999999 2.510906982421875 0.8849999999999999 Q 2.573906982421875 0.8174999999999999 2.573906982421875 0.6884999999999999 L 2.573906982421875 0.23699999999999988 L 2.7104069824218753 0.23699999999999988 Z M 3.19558740234375 0.2609999999999999 Q 3.26233740234375 0.22199999999999998 3.35833740234375 0.22199999999999998 L 3.35833740234375 0.3629999999999999 L 3.32233740234375 0.3629999999999999 Q 3.0928374023437497 0.3629999999999999 3.0928374023437497 0.6119999999999999 L 3.0928374023437497 1.059 L 2.95633740234375 1.059 L 2.95633740234375 0.23699999999999988 L 3.0928374023437497 0.23699999999999988 L 3.0928374023437497 0.37049999999999994 Q 3.12883740234375 0.29999999999999993 3.19558740234375 0.2609999999999999 Z M 3.9642678222656254 0.26024999999999987 Q 4.033267822265625 0.1379999999999999 4.152517822265625 0.06899999999999995 Q 4.271767822265625 0 4.417267822265625 0 Q 4.5882678222656255 0 4.715767822265625 0.0824999999999999 Q 4.843267822265625 0.16499999999999992 4.901767822265625 0.3164999999999999 L 4.738267822265625 0.3164999999999999 Q 4.694767822265625 0.22199999999999998 4.6130178222656255 0.17099999999999993 Q 4.531267822265625 0.11999999999999988 4.417267822265625 0.11999999999999988 Q 4.3077678222656255 0.11999999999999988 4.220767822265625 0.17099999999999993 Q 4.133767822265625 0.22199999999999998 4.084267822265625 0.31575 Q 4.034767822265625 0.4095 4.034767822265625 0.5355 Q 4.034767822265625 0.6599999999999999 4.084267822265625 0.7537499999999999 Q 4.133767822265625 0.8474999999999999 4.220767822265625 0.8985 Q 4.3077678222656255 0.9494999999999999 4.417267822265625 0.9494999999999999 Q 4.531267822265625 0.9494999999999999 4.6130178222656255 0.8992499999999999 Q 4.694767822265625 0.849 4.738267822265625 0.7545 L 4.901767822265625 0.7545 Q 4.843267822265625 0.9045 4.715767822265625 0.98625 Q 4.5882678222656255 1.0679999999999998 4.417267822265625 1.0679999999999998 Q 4.271767822265625 1.0679999999999998 4.152517822265625 0.9997499999999999 Q 4.033267822265625 0.9315 3.9642678222656254 0.8099999999999999 Q 3.895267822265625 0.6884999999999999 3.895267822265625 0.5355 Q 3.895267822265625 0.38249999999999995 3.9642678222656254 0.26024999999999987 Z M 5.268476806640625 1.02 Q 5.174726806640625 0.9674999999999999 5.121476806640625 0.8707499999999999 Q 5.068226806640625 0.7739999999999999 5.068226806640625 0.6464999999999999 Q 5.068226806640625 0.5205 5.122976806640625 0.42374999999999996 Q 5.177726806640625 0.32699999999999996 5.272226806640625 0.2752499999999999 Q 5.366726806640624 0.22349999999999992 5.483726806640625 0.22349999999999992 Q 5.600726806640624 0.22349999999999992 5.695226806640624 0.2752499999999999 Q 5.7897268066406244 0.32699999999999996 5.844476806640625 0.42299999999999993 Q 5.899226806640625 0.5189999999999999 5.899226806640625 0.6464999999999999 Q 5.899226806640625 0.7739999999999999 5.842976806640625 0.8707499999999999 Q 5.786726806640625 0.9674999999999999 5.690726806640625 1.02 Q 5.594726806640625 1.0725 5.477726806640625 1.0725 Q 5.362226806640625 1.0725 5.268476806640625 1.02 Z M 5.615726806640625 0.9179999999999999 Q 5.680226806640625 0.8835 5.719976806640625 0.8145 Q 5.759726806640625 0.7454999999999999 5.759726806640625 0.6464999999999999 Q 5.759726806640625 0.5474999999999999 5.7207268066406245 0.4784999999999999 Q 5.681726806640625 0.4095 5.618726806640625 0.3757499999999999 Q 5.5557268066406245 0.34199999999999997 5.482226806640625 0.34199999999999997 Q 5.407226806640625 0.34199999999999997 5.3449768066406245 0.3757499999999999 Q 5.282726806640625 0.4095 5.245226806640625 0.4784999999999999 Q 5.207726806640625 0.5474999999999999 5.207726806640625 0.6464999999999999 Q 5.207726806640625 0.7469999999999999 5.244476806640625 0.816 Q 5.281226806640625 0.8849999999999999 5.342726806640625 0.91875 Q 5.404226806640625 0.9524999999999999 5.477726806640625 0.9524999999999999 Q 5.551226806640625 0.9524999999999999 5.615726806640625 0.9179999999999999 Z M 7.2536572265625 0.2617499999999999 Q 7.3286572265625 0.3014999999999999 7.3721572265625 0.3809999999999999 Q 7.4156572265625 0.4604999999999999 7.4156572265625 0.5745 L 7.4156572265625 1.059 L 7.2806572265625 1.059 L 7.2806572265625 0.5939999999999999 Q 7.2806572265625 0.471 7.2199072265624995 0.40574999999999994 Q 7.1591572265625 0.3404999999999999 7.0556572265624995 0.3404999999999999 Q 6.9491572265625 0.3404999999999999 6.886157226562499 0.40874999999999995 Q 6.8231572265625 0.477 6.8231572265625 0.6059999999999999 L 6.8231572265625 1.059 L 6.6881572265625 1.059 L 6.6881572265625 0.5939999999999999 Q 6.6881572265625 0.471 6.627407226562499 0.40574999999999994 Q 6.5666572265625 0.3404999999999999 6.463157226562499 0.3404999999999999 Q 6.3566572265625 0.3404999999999999 6.2936572265625 0.40874999999999995 Q 6.230657226562499 0.477 6.230657226562499 0.6059999999999999 L 6.230657226562499 1.059 L 6.0941572265624995 1.059 L 6.0941572265624995 0.23699999999999988 L 6.230657226562499 0.23699999999999988 L 6.230657226562499 0.3554999999999999 Q 6.271157226562499 0.2909999999999999 6.3394072265625 0.25649999999999995 Q 6.4076572265625 0.22199999999999998 6.490157226562499 0.22199999999999998 Q 6.5936572265625 0.22199999999999998 6.673157226562499 0.26849999999999996 Q 6.7526572265625 0.31499999999999995 6.791657226562499 0.4049999999999999 Q 6.8261572265625 0.31799999999999995 6.9056572265625 0.2699999999999999 Q 6.9851572265624995 0.22199999999999998 7.0826572265625 0.22199999999999998 Q 7.1786572265625 0.22199999999999998 7.2536572265625 0.2617499999999999 Z M 7.911359619140624 0.27074999999999994 Q 7.9916096191406245 0.22349999999999992 8.098109619140624 0.22349999999999992 Q 8.207609619140625 0.22349999999999992 8.296859619140625 0.2759999999999999 Q 8.386109619140624 0.3284999999999999 8.437109619140625 0.42374999999999996 Q 8.488109619140625 0.5189999999999999 8.488109619140625 0.6449999999999999 Q 8.488109619140625 0.7695 8.437109619140625 0.867 Q 8.386109619140624 0.9644999999999999 8.296859619140625 1.0185 Q 8.207609619140625 1.0725 8.098109619140624 1.0725 Q 7.993109619140625 1.0725 7.912859619140624 1.02525 Q 7.832609619140624 0.978 7.790609619140624 0.9075 L 7.790609619140624 1.4489999999999998 L 7.654109619140624 1.4489999999999998 L 7.654109619140624 0.23699999999999988 L 7.790609619140624 0.23699999999999988 L 7.790609619140624 0.38849999999999996 Q 7.831109619140625 0.31799999999999995 7.911359619140624 0.27074999999999994 Z M 8.311109619140623 0.4829999999999999 Q 8.273609619140624 0.4139999999999999 8.209859619140625 0.3779999999999999 Q 8.146109619140624 0.34199999999999997 8.069609619140625 0.34199999999999997 Q 7.994609619140625 0.34199999999999997 7.930859619140624 0.3787499999999999 Q 7.867109619140624 0.4155 7.828859619140625 0.48524999999999996 Q 7.790609619140624 0.5549999999999999 7.790609619140624 0.6464999999999999 Q 7.790609619140624 0.7394999999999999 7.828859619140625 0.8092499999999999 Q 7.867109619140624 0.879 7.930859619140624 0.91575 Q 7.994609619140625 0.9524999999999999 8.069609619140625 0.9524999999999999 Q 8.146109619140624 0.9524999999999999 8.209859619140625 0.91575 Q 8.273609619140624 0.879 8.311109619140623 0.8092499999999999 Q 8.348609619140625 0.7394999999999999 8.348609619140625 0.6449999999999999 Q 8.348609619140625 0.5519999999999999 8.311109619140623 0.4829999999999999 Z M 8.68305615234375 0.42374999999999996 Q 8.734056152343749 0.3284999999999999 8.82330615234375 0.2759999999999999 Q 8.91255615234375 0.22349999999999992 9.02205615234375 0.22349999999999992 Q 9.13005615234375 0.22349999999999992 9.20955615234375 0.2699999999999999 Q 9.28905615234375 0.3164999999999999 9.32805615234375 0.3869999999999999 L 9.32805615234375 0.23699999999999988 L 9.46605615234375 0.23699999999999988 L 9.46605615234375 1.059 L 9.32805615234375 1.059 L 9.32805615234375 0.9059999999999999 Q 9.28755615234375 0.978 9.20730615234375 1.02525 Q 9.12705615234375 1.0725 9.02055615234375 1.0725 Q 8.91105615234375 1.0725 8.82255615234375 1.0185 Q 8.734056152343749 0.9644999999999999 8.68305615234375 0.867 Q 8.63205615234375 0.7695 8.63205615234375 0.6449999999999999 Q 8.63205615234375 0.5189999999999999 8.68305615234375 0.42374999999999996 Z M 9.29055615234375 0.48449999999999993 Q 9.25305615234375 0.4155 9.18930615234375 0.3787499999999999 Q 9.12555615234375 0.34199999999999997 9.04905615234375 0.34199999999999997 Q 8.97255615234375 0.34199999999999997 8.90955615234375 0.3779999999999999 Q 8.84655615234375 0.4139999999999999 8.80905615234375 0.4829999999999999 Q 8.77155615234375 0.5519999999999999 8.77155615234375 0.6449999999999999 Q 8.77155615234375 0.7394999999999999 8.80905615234375 0.8092499999999999 Q 8.84655615234375 0.879 8.90955615234375 0.91575 Q 8.97255615234375 0.9524999999999999 9.04905615234375 0.9524999999999999 Q 9.12555615234375 0.9524999999999999 9.18930615234375 0.91575 Q 9.25305615234375 0.879 9.29055615234375 0.8092499999999999 Q 9.32805615234375 0.7394999999999999 9.32805615234375 0.6464999999999999 Q 9.32805615234375 0.5534999999999999 9.29055615234375 0.48449999999999993 Z M 10.355502685546876 0.31275 Q 10.448502685546876 0.40349999999999997 10.448502685546876 0.5745 L 10.448502685546876 1.059 L 10.313502685546876 1.059 L 10.313502685546876 0.5939999999999999 Q 10.313502685546876 0.471 10.252002685546875 0.40574999999999994 Q 10.190502685546875 0.3404999999999999 10.084002685546876 0.3404999999999999 Q 9.976002685546876 0.3404999999999999 9.912252685546875 0.4079999999999999 Q 9.848502685546876 0.4754999999999999 9.848502685546876 0.6044999999999999 L 9.848502685546876 1.059 L 9.712002685546876 1.059 L 9.712002685546876 0.23699999999999988 L 9.848502685546876 0.23699999999999988 L 9.848502685546876 0.354 Q 9.889002685546876 0.2909999999999999 9.958752685546875 0.25649999999999995 Q 10.028502685546876 0.22199999999999998 10.112502685546875 0.22199999999999998 Q 10.262502685546876 0.22199999999999998 10.355502685546876 0.31275 Z M 11.39493310546875 0.23699999999999988 L 10.899933105468751 1.446 L 10.758933105468751 1.446 L 10.920933105468752 1.05 L 10.589433105468752 0.23699999999999988 L 10.74093310546875 0.23699999999999988 L 10.998933105468751 0.9029999999999999 L 11.25393310546875 0.23699999999999988 L 11.39493310546875 0.23699999999999988 Z M 12.783867187500002 1.059 L 12.647367187500002 1.059 L 12.098367187500003 0.22649999999999992 L 12.098367187500003 1.059 L 11.961867187500003 1.059 L 11.961867187500003 0.01200000000000001 L 12.098367187500003 0.01200000000000001 L 12.647367187500002 0.843 L 12.647367187500002 0.01200000000000001 L 12.783867187500002 0.01200000000000001 L 12.783867187500002 1.059 Z M 13.031280029296878 0.42374999999999996 Q 13.082280029296877 0.3284999999999999 13.171530029296878 0.2759999999999999 Q 13.260780029296878 0.22349999999999992 13.370280029296877 0.22349999999999992 Q 13.478280029296878 0.22349999999999992 13.557780029296877 0.2699999999999999 Q 13.637280029296878 0.3164999999999999 13.676280029296878 0.3869999999999999 L 13.676280029296878 0.23699999999999988 L 13.814280029296878 0.23699999999999988 L 13.814280029296878 1.059 L 13.676280029296878 1.059 L 13.676280029296878 0.9059999999999999 Q 13.635780029296878 0.978 13.555530029296877 1.02525 Q 13.475280029296878 1.0725 13.368780029296877 1.0725 Q 13.259280029296878 1.0725 13.170780029296878 1.0185 Q 13.082280029296877 0.9644999999999999 13.031280029296878 0.867 Q 12.980280029296878 0.7695 12.980280029296878 0.6449999999999999 Q 12.980280029296878 0.5189999999999999 13.031280029296878 0.42374999999999996 Z M 13.638780029296878 0.48449999999999993 Q 13.601280029296877 0.4155 13.537530029296878 0.3787499999999999 Q 13.473780029296877 0.34199999999999997 13.397280029296878 0.34199999999999997 Q 13.320780029296877 0.34199999999999997 13.257780029296878 0.3779999999999999 Q 13.194780029296878 0.4139999999999999 13.157280029296878 0.4829999999999999 Q 13.119780029296878 0.5519999999999999 13.119780029296878 0.6449999999999999 Q 13.119780029296878 0.7394999999999999 13.157280029296878 0.8092499999999999 Q 13.194780029296878 0.879 13.257780029296878 0.91575 Q 13.320780029296877 0.9524999999999999 13.397280029296878 0.9524999999999999 Q 13.473780029296877 0.9524999999999999 13.537530029296878 0.91575 Q 13.601280029296877 0.879 13.638780029296878 0.8092499999999999 Q 13.676280029296878 0.7394999999999999 13.676280029296878 0.6464999999999999 Q 13.676280029296878 0.5534999999999999 13.638780029296878 0.48449999999999993 Z M 15.219726562500004 0.2617499999999999 Q 15.294726562500003 0.3014999999999999 15.338226562500003 0.3809999999999999 Q 15.381726562500003 0.4604999999999999 15.381726562500003 0.5745 L 15.381726562500003 1.059 L 15.246726562500003 1.059 L 15.246726562500003 0.5939999999999999 Q 15.246726562500003 0.471 15.185976562500002 0.40574999999999994 Q 15.125226562500004 0.3404999999999999 15.021726562500003 0.3404999999999999 Q 14.915226562500003 0.3404999999999999 14.852226562500004 0.40874999999999995 Q 14.789226562500003 0.477 14.789226562500003 0.6059999999999999 L 14.789226562500003 1.059 L 14.654226562500003 1.059 L 14.654226562500003 0.5939999999999999 Q 14.654226562500003 0.471 14.593476562500003 0.40574999999999994 Q 14.532726562500002 0.3404999999999999 14.429226562500004 0.3404999999999999 Q 14.322726562500003 0.3404999999999999 14.259726562500003 0.40874999999999995 Q 14.196726562500004 0.477 14.196726562500004 0.6059999999999999 L 14.196726562500004 1.059 L 14.060226562500004 1.059 L 14.060226562500004 0.23699999999999988 L 14.196726562500004 0.23699999999999988 L 14.196726562500004 0.3554999999999999 Q 14.237226562500004 0.2909999999999999 14.305476562500003 0.25649999999999995 Q 14.373726562500003 0.22199999999999998 14.456226562500003 0.22199999999999998 Q 14.559726562500003 0.22199999999999998 14.639226562500003 0.26849999999999996 Q 14.718726562500002 0.31499999999999995 14.757726562500004 0.4049999999999999 Q 14.792226562500003 0.31799999999999995 14.871726562500003 0.2699999999999999 Q 14.951226562500004 0.22199999999999998 15.048726562500004 0.22199999999999998 Q 15.144726562500002 0.22199999999999998 15.219726562500004 0.2617499999999999 Z M 16.365678955078128 0.699 L 15.70867895507813 0.699 Q 15.716178955078128 0.8204999999999999 15.791928955078129 0.8887499999999999 Q 15.867678955078128 0.957 15.975678955078129 0.957 Q 16.06417895507813 0.957 16.12342895507813 0.91575 Q 16.182678955078128 0.8744999999999999 16.20667895507813 0.8054999999999999 L 16.353678955078127 0.8054999999999999 Q 16.32067895507813 0.9239999999999999 16.22167895507813 0.99825 Q 16.12267895507813 1.0725 15.975678955078129 1.0725 Q 15.858678955078128 1.0725 15.766428955078128 1.02 Q 15.674178955078128 0.9674999999999999 15.62167895507813 0.8707499999999999 Q 15.56917895507813 0.7739999999999999 15.56917895507813 0.6464999999999999 Q 15.56917895507813 0.5189999999999999 15.62017895507813 0.42299999999999993 Q 15.671178955078128 0.32699999999999996 15.763428955078128 0.2752499999999999 Q 15.85567895507813 0.22349999999999992 15.975678955078129 0.22349999999999992 Q 16.092678955078128 0.22349999999999992 16.182678955078128 0.27449999999999997 Q 16.272678955078128 0.3254999999999999 16.32142895507813 0.41474999999999995 Q 16.370178955078128 0.5039999999999999 16.370178955078128 0.6164999999999999 Q 16.370178955078128 0.6555 16.365678955078128 0.699 Z M 16.19467895507813 0.4537499999999999 Q 16.16017895507813 0.39749999999999996 16.10092895507813 0.36824999999999997 Q 16.04167895507813 0.33899999999999997 15.969678955078129 0.33899999999999997 Q 15.866178955078128 0.33899999999999997 15.793428955078129 0.4049999999999999 Q 15.720678955078128 0.471 15.71017895507813 0.5879999999999999 L 16.22917895507813 0.5879999999999999 Q 16.22917895507813 0.5099999999999999 16.19467895507813 0.4537499999999999 Z" fill="#563f30" fill-rule="nonzero"></path></g><g></g><g clip-path="url(&quot;#SvgjsClipPath1000&quot;)"><path d=" M 1.100914247839864 -14.388585895873824 L 15.333757383019513 -14.388585895873824 L 15.333757383019513 -0.25 L 1.100914247839864 -0.25 Z" fill="#eb8f2d" transform="matrix(1,0,0,1,0,0)" fill-rule="nonzero" mask="url(#maskedText)"></path></g></g><defs><clipPath id="SvgjsClipPath1000"><path d=" M 1.1009142478398637 -14.388585895873824 h 14.23284313517965 v 14.138585895873824 h -14.23284313517965 Z"></path></clipPath><mask id="maskedText"><path d=" M 15.333757383019513 -7.319292947936913 C 15.333757383019513 -3.389001485764881 12.147627277601721 -0.20287138034708896 8.217335815429688 -0.20287138034708896 C 4.287044353257656 -0.20287138034708896 1.100914247839864 -3.389001485764881 1.100914247839864 -7.319292947936913 C 1.100914247839864 -11.249584410108945 4.287044353257656 -14.435714515526737 8.217335815429688 -14.435714515526737 C 12.147627277601721 -14.435714515526737 15.333757383019513 -11.249584410108945 15.333757383019513 -7.319292947936913 Z" fill="#ffffff" transform="matrix(1,0,0,1,0,0)" fill-rule="nonzero"></path><path d=" M 6.8206716107205985 -9.180549997600886 L 5.23355319627845 -6.96435555707076 L 5.158525780323004 -5.157926234451151 L 3.7907182740583156 -5.157926234451151 L 3.8253463121915985 -6.952812877692998 L 3.000044736681682 -9.093979902267678 L 4.471736357346219 -9.278662772311854 L 4.70258994490144 -8.032053399513659 L 5.435550085389268 -9.278662772311854 L 6.8206716107205985 -9.180549997600886 Z" fill="NA" transform="matrix(1,0,0,1,0,0)" fill-rule="nonzero"></path><path d=" M 9.276376648339268 -9.330604829511781 L 9.114779137050611 -8.112852155157986 C 9.0589895200581 -8.128242394328336 9.003199903065589 -8.13882318375795 8.947410286073076 -8.14459452344683 C 8.891620669080565 -8.15036586313571 8.835831052088054 -8.15325153298015 8.78004143509554 -8.15325153298015 C 8.637681722769821 -8.15325153298015 8.502055240081129 -8.134494678991288 8.373161987029462 -8.096980971013565 C 8.244268733977798 -8.059467263035842 8.130284775122407 -8.00223481112111 8.031210110463292 -7.925283615269369 C 7.932135445804175 -7.848332419417629 7.853260470056141 -7.752143424602953 7.794585183219189 -7.636716630825342 C 7.735909896382237 -7.521289837047732 7.706572252963761 -7.385663354359039 7.706572252963761 -7.229837182759264 C 7.706572252963761 -7.129800628152002 7.722443437108183 -7.043230532818793 7.754185805397025 -6.9701268967596395 C 7.7859281736858685 -6.897023260700486 7.830656056274693 -6.8364241939672405 7.888369453163498 -6.788329696559903 C 7.946082850052303 -6.740235199152565 8.014377036370723 -6.704645271071135 8.093252012118757 -6.681559912315613 C 8.172126987866791 -6.658474553560091 8.2586970832 -6.64693187418233 8.352962298118381 -6.64693187418233 C 8.424142154281242 -6.64693187418233 8.498207680288541 -6.654626993767504 8.575158876140282 -6.670017232937852 C 8.652110071992022 -6.6854074721082 8.728099377895616 -6.705607161019282 8.803126793851064 -6.730616299671098 C 8.87815420980651 -6.755625438322913 8.951257845865664 -6.784482136767316 9.022437702028522 -6.817186395004306 C 9.093617558191383 -6.849890653241296 9.159026074665363 -6.8835568014264314 9.218663251450462 -6.918184839559715 L 9.103236457672852 -5.561920012672789 C 9.028209041717403 -5.523444414746918 8.946929341099004 -5.489297321587708 8.859397355817649 -5.459478733195159 C 8.771865370536293 -5.42966014480261 8.681928660384571 -5.4036891162026475 8.589587225362482 -5.381565647395272 C 8.497245790340394 -5.359442178587896 8.404904355318306 -5.342609104495328 8.312562920296218 -5.331066425117567 C 8.220221485274129 -5.319523745739806 8.131727610044628 -5.313752406050925 8.047081294607713 -5.313752406050925 C 7.802761247778436 -5.313752406050925 7.5747933300676555 -5.358961233613823 7.363177541475369 -5.449378888739618 C 7.151561752883082 -5.539796543865413 6.967840772787052 -5.663880347176345 6.812014601187277 -5.821630298672413 C 6.656188429587503 -5.9793802501684805 6.533547461198792 -6.165505955134878 6.444091696021143 -6.3800074135716045 C 6.354635930843495 -6.594508872008332 6.3099080482546706 -6.825843404537626 6.3099080482546706 -7.07401101115949 C 6.3099080482546706 -7.40297737342568 6.3570406557138615 -7.71318688170301 6.451305870632244 -8.004639535991476 C 6.545571085550626 -8.296092190279943 6.684083238083759 -8.551473971512907 6.866842328231643 -8.770784879690368 C 7.049601418379527 -8.990095787867828 7.276126501168087 -9.163235978534244 7.546417576597326 -9.290205451689616 C 7.8167086520265645 -9.41717492484499 8.12788005025204 -9.480659661422674 8.479931771273753 -9.480659661422674 C 8.612672584118005 -9.480659661422674 8.748780011780772 -9.47007887199306 8.88825405426205 -9.448917293133832 C 9.027728096743331 -9.427755714274603 9.15710229476907 -9.388318226400585 9.276376648339268 -9.330604829511781 Z" fill="NA" transform="matrix(1,0,0,1,0,0)" fill-rule="nonzero"></path><path d=" M 13.38268483697777 -9.411403585156108 L 13.174916608178071 -5.498435276095103 L 11.66282560969137 -5.35992312356197 L 10.854838053248095 -7.454919430625605 L 10.727868580092723 -5.319523745739806 L 9.429317150094601 -5.319523745739806 L 9.533201264494451 -9.411403585156108 L 10.976036186714586 -9.480659661422674 L 11.974477952890918 -7.40297737342568 L 12.020648670401963 -9.365232867645062 L 13.38268483697777 -9.411403585156108 Z" fill="NA" transform="matrix(1,0,0,1,0,0)" fill-rule="nonzero"></path></mask></defs></svg>